P3
30 30
255
250 174 123 204 139 121 204 139 121 159 105 118 159 105 118 159 105 118 159 105 118 159 105 118 159 105 118 113 70 116 67 35 113 67 35 113 67 35 113 67 35 113 67 35 113 67 35 113 67 35 113 67 35 113 67 35 113 67 35 113 67 35 113 67 35 113 67 35 113 67 35 113 67 35 113 67 35 113 67 35 113 67 35 113 67 35 113 67 35 113
204 139 121 204 139 121 204 139 121 204 139 121 159 105 118 159 105 118 159 105 118 159 105 118 113 70 116 113 70 116 67 35 113 67 35 113 67 35 113 67 35 113 67 35 113 67 35 113 67 35 113 67 35 113 67 35 113 67 35 113 67 35 113 67 35 113 67 35 113 67 35 113 67 35 113 67 35 113 67 35 113 67 35 113 67 35 113 67 35 113
204 139 121 159 105 118 204 139 121 159 105 118 159 105 118 159 105 118 159 105 118 159 105 118 113 70 116 113 70 116 67 35 113 67 35 113 67 35 113 67 35 113 67 35 113 67 35 113 67 35 113 67 35 113 67 35 113 67 35 113 67 35 113 67 35 113 67 35 113 67 35 113 67 35 113 67 35 113 67 35 113 67 35 113 67 35 113 67 35 113
159 105 118 159 105 118 159 105 118 159 105 118 159 105 118 159 105 118 159 105 118 159 105 118 113 70 116 113 70 116 113 70 116 67 35 113 67 35 113 67 35 113 67 35 113 67 35 113 67 35 113 67 35 113 67 35 113 67 35 113 67 35 113 67 35 113 67 35 113 67 35 113 67 35 113 67 35 113 67 35 113 67 35 113 67 35 113 67 35 113
159 105 118 159 105 118 159 105 118 159 105 118 113 70 116 159 105 118 113 70 116 113 70 116 113 70 116 113 70 116 67 35 113 67 35 113 67 35 113 67 35 113 67 35 113 67 35 113 67 35 113 67 35 113 67 35 113 67 35 113 67 35 113 67 35 113 67 35 113 67 35 113 67 35 113 67 35 113 67 35 113 67 35 113 67 35 113 67 35 113
159 105 118 159 105 118 159 105 118 159 105 118 159 105 118 113 70 116 113 70 116 113 70 116 113 70 116 113 70 116 67 35 113 67 35 113 67 35 113 67 35 113 67 35 113 67 35 113 67 35 113 67 35 113 67 35 113 67 35 113 67 35 113 67 35 113 67 35 113 67 35 113 67 35 113 67 35 113 67 35 113 67 35 113 67 35 113 67 35 113
159 105 118 159 105 118 159 105 118 159 105 118 159 105 118 159 105 118 113 70 116 113 70 116 113 70 116 113 70 116 113 70 116 67 35 113 67 35 113 67 35 113 67 35 113 67 35 113 67 35 113 67 35 113 67 35 113 67 35 113 67 35 113 67 35 113 67 35 113 67 35 113 67 35 113 67 35 113 67 35 113 67 35 113 67 35 113 67 35 113
159 105 118 159 105 118 159 105 118 159 105 118 159 105 118 159 105 118 113 70 116 113 70 116 113 70 116 67 35 113 67 35 113 67 35 113 67 35 113 67 35 113 67 35 113 67 35 113 67 35 113 67 35 113 67 35 113 67 35 113 67 35 113 67 35 113 67 35 113 67 35 113 67 35 113 67 35 113 67 35 113 67 35 113 67 35 113 67 35 113
159 105 118 159 105 118 159 105 118 159 105 118 159 105 118 113 70 116 113 70 116 113 70 116 67 35 113 67 35 113 67 35 113 67 35 113 67 35 113 67 35 113 67 35 113 67 35 113 67 35 113 67 35 113 67 35 113 67 35 113 67 35 113 67 35 113 67 35 113 67 35 113 67 35 113 67 35 113 67 35 113 67 35 113 67 35 113 67 35 113
159 105 118 159 105 118 159 105 118 159 105 118 159 105 118 113 70 116 113 70 116 113 70 116 67 35 113 67 35 113 67 35 113 67 35 113 67 35 113 67 35 113 67 35 113 67 35 113 67 35 113 67 35 113 67 35 113 67 35 113 67 35 113 67 35 113 67 35 113 67 35 113 67 35 113 67 35 113 67 35 113 67 35 113 67 35 113 67 35 113
159 105 118 159 105 118 159 105 118 113 70 116 113 70 116 113 70 116 113 70 116 113 70 116 67 35 113 67 35 113 67 35 113 67 35 113 67 35 113 67 35 113 67 35 113 67 35 113 67 35 113 67 35 113 67 35 113 67 35 113 67 35 113 67 35 113 113 70 116 67 35 113 67 35 113 67 35 113 67 35 113 67 35 113 67 35 113 67 35 113
159 105 118 159 105 118 159 105 118 113 70 116 113 70 116 113 70 116 113 70 116 113 70 116 67 35 113 67 35 113 67 35 113 67 35 113 67 35 113 67 35 113 67 35 113 67 35 113 67 35 113 67 35 113 67 35 113 67 35 113 67 35 113 67 35 113 67 35 113 113 70 116 113 70 116 113 70 116 67 35 113 67 35 113 67 35 113 113 70 116
159 105 118 159 105 118 159 105 118 159 105 118 159 105 118 113 70 116 113 70 116 113 70 116 67 35 113 67 35 113 67 35 113 67 35 113 67 35 113 67 35 113 67 35 113 67 35 113 67 35 113 67 35 113 67 35 113 67 35 113 67 35 113 67 35 113 67 35 113 113 70 116 113 70 116 113 70 116 113 70 116 113 70 116 67 35 113 113 70 116
159 105 118 159 105 118 159 105 118 159 105 118 159 105 118 113 70 116 113 70 116 113 70 116 67 35 113 67 35 113 67 35 113 67 35 113 67 35 113 67 35 113 67 35 113 67 35 113 67 35 113 67 35 113 67 35 113 67 35 113 67 35 113 67 35 113 67 35 113 67 35 113 67 35 113 113 70 116 67 35 113 113 70 116 113 70 116 113 70 116
159 105 118 159 105 118 159 105 118 159 105 118 159 105 118 159 105 118 113 70 116 67 35 113 67 35 113 67 35 113 67 35 113 67 35 113 67 35 113 67 35 113 67 35 113 67 35 113 67 35 113 67 35 113 67 35 113 67 35 113 67 35 113 67 35 113 67 35 113 113 70 116 113 70 116 113 70 116 113 70 116 113 70 116 113 70 116 113 70 116
159 105 118 159 105 118 159 105 118 159 105 118 159 105 118 159 105 118 113 70 116 67 35 113 67 35 113 67 35 113 67 35 113 67 35 113 67 35 113 67 35 113 67 35 113 67 35 113 67 35 113 67 35 113 67 35 113 67 35 113 67 35 113 113 70 116 67 35 113 113 70 116 113 70 116 113 70 116 113 70 116 113 70 116 113 70 116 113 70 116
204 139 121 159 105 118 159 105 118 159 105 118 159 105 118 159 105 118 113 70 116 113 70 116 67 35 113 67 35 113 67 35 113 67 35 113 67 35 113 67 35 113 67 35 113 67 35 113 67 35 113 67 35 113 67 35 113 113 70 116 113 70 116 113 70 116 113 70 116 113 70 116 113 70 116 113 70 116 113 70 116 113 70 116 113 70 116 113 70 116
204 139 121 204 139 121 159 105 118 159 105 118 159 105 118 159 105 118 159 105 118 113 70 116 67 35 113 67 35 113 67 35 113 67 35 113 67 35 113 67 35 113 67 35 113 67 35 113 67 35 113 67 35 113 67 35 113 113 70 116 113 70 116 113 70 116 113 70 116 113 70 116 113 70 116 113 70 116 113 70 116 113 70 116 113 70 116 113 70 116
204 139 121 204 139 121 204 139 121 159 105 118 159 105 118 159 105 118 159 105 118 113 70 116 113 70 116 113 70 116 113 70 116 113 70 116 113 70 116 113 70 116 67 35 113 67 35 113 113 70 116 113 70 116 113 70 116 113 70 116 113 70 116 113 70 116 113 70 116 113 70 116 113 70 116 113 70 116 113 70 116 113 70 116 113 70 116 113 70 116
204 139 121 204 139 121 159 105 118 159 105 118 159 105 118 159 105 118 159 105 118 159 105 118 113 70 116 113 70 116 113 70 116 113 70 116 113 70 116 113 70 116 113 70 116 113 70 116 113 70 116 113 70 116 113 70 116 113 70 116 113 70 116 113 70 116 113 70 116 113 70 116 113 70 116 113 70 116 113 70 116 113 70 116 113 70 116 113 70 116
204 139 121 159 105 118 159 105 118 159 105 118 159 105 118 159 105 118 159 105 118 159 105 118 159 105 118 113 70 116 113 70 116 113 70 116 113 70 116 113 70 116 113 70 116 113 70 116 113 70 116 113 70 116 113 70 116 113 70 116 113 70 116 113 70 116 159 105 118 113 70 116 113 70 116 113 70 116 113 70 116 113 70 116 67 35 113 67 35 113
159 105 118 159 105 118 159 105 118 159 105 118 159 105 118 159 105 118 113 70 116 159 105 118 113 70 116 113 70 116 113 70 116 113 70 116 113 70 116 113 70 116 113 70 116 113 70 116 113 70 116 113 70 116 113 70 116 113 70 116 113 70 116 113 70 116 159 105 118 113 70 116 113 70 116 113 70 116 113 70 116 113 70 116 113 70 116 67 35 113
159 105 118 159 105 118 159 105 118 159 105 118 159 105 118 159 105 118 159 105 118 159 105 118 159 105 118 113 70 116 113 70 116 113 70 116 113 70 116 113 70 116 113 70 116 113 70 116 113 70 116 113 70 116 113 70 116 113 70 116 113 70 116 113 70 116 159 105 118 159 105 118 113 70 116 113 70 116 113 70 116 113 70 116 113 70 116 67 35 113
159 105 118 159 105 118 159 105 118 159 105 118 159 105 118 159 105 118 159 105 118 159 105 118 113 70 116 113 70 116 113 70 116 113 70 116 113 70 116 113 70 116 113 70 116 113 70 116 113 70 116 159 105 118 159 105 118 113 70 116 159 105 118 159 105 118 159 105 118 159 105 118 113 70 116 113 70 116 113 70 116 113 70 116 113 70 116 113 70 116
204 139 121 159 105 118 159 105 118 159 105 118 159 105 118 159 105 118 159 105 118 159 105 118 159 105 118 159 105 118 159 105 118 159 105 118 113 70 116 113 70 116 113 70 116 113 70 116 159 105 118 159 105 118 159 105 118 159 105 118 159 105 118 159 105 118 159 105 118 159 105 118 113 70 116 113 70 116 113 70 116 113 70 116 113 70 116 113 70 116
204 139 121 159 105 118 159 105 118 159 105 118 159 105 118 159 105 118 159 105 118 159 105 118 159 105 118 159 105 118 159 105 118 159 105 118 159 105 118 159 105 118 159 105 118 159 105 118 159 105 118 159 105 118 159 105 118 159 105 118 159 105 118 159 105 118 159 105 118 113 70 116 113 70 116 113 70 116 113 70 116 113 70 116 113 70 116 113 70 116
204 139 121 159 105 118 159 105 118 159 105 118 159 105 118 159 105 118 159 105 118 159 105 118 159 105 118 159 105 118 159 105 118 159 105 118 159 105 118 159 105 118 159 105 118 159 105 118 159 105 118 159 105 118 159 105 118 159 105 118 159 105 118 159 105 118 159 105 118 113 70 116 113 70 116 113 70 116 113 70 116 113 70 116 113 70 116 113 70 116
204 139 121 204 139 121 159 105 118 159 105 118 159 105 118 204 139 121 159 105 118 159 105 118 204 139 121 159 105 118 159 105 118 159 105 118 204 139 121 159 105 118 159 105 118 159 105 118 159 105 118 159 105 118 204 139 121 204 139 121 159 105 118 159 105 118 159 105 118 159 105 118 159 105 118 113 70 116 113 70 116 113 70 116 113 70 116 113 70 116
204 139 121 204 139 121 204 139 121 204 139 121 204 139 121 204 139 121 204 139 121 204 139 121 204 139 121 204 139 121 159 105 118 159 105 118 204 139 121 204 139 121 204 139 121 159 105 118 159 105 118 159 105 118 204 139 121 204 139 121 204 139 121 159 105 118 159 105 118 159 105 118 159 105 118 159 105 118 159 105 118 113 70 116 113 70 116 113 70 116
204 139 121 204 139 121 204 139 121 204 139 121 204 139 121 204 139 121 204 139 121 204 139 121 204 139 121 204 139 121 204 139 121 204 139 121 204 139 121 204 139 121 204 139 121 204 139 121 204 139 121 204 139 121 204 139 121 204 139 121 204 139 121 204 139 121 159 105 118 159 105 118 159 105 118 159 105 118 159 105 118 113 70 116 113 70 116 113 70 116
