P2
100 100
255
93 91 92 91 93 92 90 89 94 90 92 92 94 93 95 89 91 89 91 92 96 97 101 101 108 111 114 113 117 116 119 118 121 117 119 116 115 114 110 112 110 112 117 118 123 122 124 121 118 119 121 126 133 136 141 145 153 146 147 147 149 150 152 158 167 157 153 150 149 145 143 139 140 137 140 139 142 137 133 129 131 128 129 124 124 122 121 116 111 107 109 106 108 104 107 103 98 96 94 94
90 89 90 89 91 92 90 91 92 92 91 90 91 90 90 89 92 92 91 94 94 99 100 102 104 110 110 110 112 115 117 120 117 118 114 114 115 114 114 114 112 116 118 121 120 122 120 122 120 120 121 126 130 136 141 146 147 146 146 147 148 149 152 159 161 158 153 151 147 146 142 142 138 137 137 140 136 136 133 131 128 127 123 121 120 119 117 116 109 109 109 107 106 105 105 101 97 96 97 93
93 90 89 89 90 91 92 89 89 90 90 87 86 86 88 89 91 91 97 97 98 101 103 102 107 107 109 111 111 112 118 118 118 117 116 116 117 116 119 117 117 117 119 121 122 120 123 123 121 122 126 128 134 139 140 143 146 144 148 148 149 151 153 157 161 158 154 147 145 145 146 141 138 139 139 135 135 135 136 132 134 129 123 119 119 119 119 114 111 110 108 104 106 105 108 103 98 99 97 94
90 90 91 90 89 89 85 87 87 86 85 87 86 85 87 89 89 94 96 95 96 100 98 100 101 104 107 110 111 111 112 114 115 116 115 116 118 119 118 122 121 121 118 121 122 122 123 124 123 125 129 133 136 139 139 140 140 141 144 146 148 149 150 156 156 156 152 149 147 145 143 141 139 138 135 135 135 134 132 134 130 128 123 120 120 117 115 116 113 109 105 106 106 108 107 105 104 101 100 98
93 89 91 88 88 86 83 81 83 84 84 84 87 85 89 86 88 92 96 96 99 102 100 97 100 104 108 109 109 110 111 112 113 116 118 116 123 121 123 122 127 121 119 119 120 124 128 128 131 128 132 133 139 138 140 139 140 138 141 143 148 148 150 154 159 156 155 149 148 143 140 138 141 137 138 137 139 134 135 132 135 125 121 120 120 117 114 113 117 110 106 103 107 106 107 106 108 105 104 99
91 90 88 88 83 81 79 80 80 83 83 86 85 85 87 89 89 95 98 101 100 104 99 99 101 103 106 107 107 112 111 110 112 115 114 116 116 120 119 123 121 122 121 119 119 123 126 127 131 132 133 134 136 137 136 138 138 140 141 147 147 150 152 153 153 152 151 147 145 141 141 140 138 139 138 135 134 132 133 132 131 127 122 120 120 116 114 116 112 110 103 103 104 104 104 105 104 102 101 99
88 90 92 88 82 82 80 81 81 81 83 85 88 86 86 90 93 96 101 102 106 102 103 101 101 101 102 103 109 109 111 109 109 111 114 113 114 117 121 120 121 120 125 121 118 123 127 127 133 132 135 133 137 138 136 138 139 140 146 145 149 150 151 148 148 148 147 144 142 141 140 139 142 138 140 135 134 132 130 128 127 126 124 122 122 116 117 114 113 107 103 100 102 100 101 101 105 101 101 100
90 91 89 86 81 80 81 80 80 81 79 81 85 85 87 92 95 98 101 102 105 105 103 102 103 101 99 103 105 108 108 106 109 112 111 112 112 117 119 122 123 123 121 120 118 121 123 128 132 134 136 135 136 135 136 137 141 142 145 148 148 150 147 149 150 148 147 143 142 139 139 140 139 139 139 136 131 129 127 125 124 122 122 121 118 119 117 109 108 105 101 100 99 99 97 98 101 103 102 100
93 87 89 84 86 81 83 78 77 79 80 82 84 86 91 91 97 96 103 103 109 107 106 104 104 100 100 103 107 107 106 107 108 110 114 114 115 115 119 120 129 123 122 117 116 120 121 127 138 135 139 138 140 136 135 136 144 140 143 145 151 149 146 145 149 145 146 143 146 140 138 137 144 138 137 133 134 127 127 124 124 121 121 119 120 118 115 109 102 101 103 98 96 94 96 98 98 101 101 97
89 86 83 82 83 82 80 77 75 79 81 82 82 86 90 92 92 97 99 104 107 107 104 103 103 103 104 104 106 107 107 110 109 111 115 115 118 117 120 121 124 124 122 118 118 118 122 127 132 134 135 134 133 136 136 136 140 141 141 142 146 146 146 143 143 142 142 143 143 141 138 136 134 134 129 129 128 125 123 123 121 118 114 115 113 114 111 107 101 103 101 98 99 96 97 99 98 100 99 100
86 80 82 79 79 78 77 74 78 79 81 78 80 82 87 91 92 95 103 106 109 107 104 106 106 104 105 105 107 106 111 113 115 114 116 119 122 120 121 120 123 119 120 117 117 116 121 124 131 130 134 132 133 131 134 134 139 137 140 139 141 144 145 140 143 140 140 140 139 137 139 134 132 128 127 126 127 123 123 121 118 113 111 110 111 110 110 106 103 102 99 98 101 99 101 99 102 100 104 102
76 77 78 76 73 74 75 75 74 78 78 79 81 85 86 90 94 99 102 105 106 107 107 109 106 107 107 111 110 109 110 111 116 117 116 119 122 123 121 123 121 120 117 117 113 114 115 120 126 131 131 132 132 131 134 133 135 138 137 140 140 140 142 140 141 137 136 136 135 135 133 129 124 123 120 123 123 120 118 116 111 109 107 109 107 110 106 103 101 99 99 100 102 104 101 101 103 103 103 102
72 76 76 74 72 73 75 71 72 75 81 81 83 85 91 95 100 102 105 106 110 108 111 112 112 109 115 114 114 110 110 112 118 116 121 120 124 123 122 123 126 120 118 114 111 111 113 116 125 124 130 129 132 130 134 132 136 137 141 141 143 138 140 137 140 135 133 135 137 134 131 126 123 118 118 119 119 117 118 111 109 106 105 105 108 107 105 101 100 98 100 101 109 104 106 106 105 104 104 104
71 75 74 70 71 69 70 73 73 75 78 80 79 85 89 96 99 103 103 105 108 108 109 112 115 113 114 114 113 111 111 116 116 119 120 120 121 120 118 118 117 115 115 112 106 106 109 114 116 121 121 123 123 127 128 129 129 133 136 140 139 136 136 137 137 137 133 132 128 128 127 122 120 115 113 114 113 111 111 107 106 105 105 107 108 106 103 104 103 102 102 106 109 106 107 105 104 105 102 104
73 73 72 69 69 68 70 70 75 72 75 78 79 85 92 97 102 104 107 107 107 109 109 113 116 111 113 110 113 113 114 118 121 120 123 122 123 117 115 114 112 111 113 110 105 104 104 107 112 116 119 119 118 119 123 126 129 131 134 134 138 132 133 135 137 134 134 126 124 122 124 118 117 111 110 110 106 108 105 104 103 102 106 104 108 103 104 102 104 104 105 104 108 107 110 107 107 104 106 104
68 71 68 69 70 73 69 70 72 73 75 76 79 86 90 96 101 104 104 106 110 111 110 113 116 113 113 109 108 112 115 119 121 121 122 120 118 115 113 111 110 108 107 106 101 99 102 105 108 111 114 112 112 113 118 122 127 130 131 132 134 131 131 133 130 128 124 123 120 117 121 119 116 111 110 107 104 103 99 100 99 99 103 103 102 103 101 105 107 105 102 104 105 108 107 110 108 109 107 106
68 68 68 72 78 72 74 71 67 74 80 78 81 87 92 96 107 107 107 106 112 114 114 115 120 113 112 111 109 109 114 116 124 119 122 118 114 110 107 106 109 104 103 99 97 99 100 100 102 107 107 105 105 111 112 119 125 124 128 128 131 130 130 126 128 123 122 119 115 114 116 116 115 111 107 105 102 100 96 95 93 95 100 100 103 100 101 105 111 105 102 104 108 105 110 110 117 110 109 106
69 68 69 74 76 74 74 74 73 74 80 82 83 86 92 98 100 106 104 106 109 113 112 115 114 115 111 110 110 108 113 113 117 116 115 115 112 110 105 105 102 101 98 100 98 98 99 99 99 100 103 103 105 107 111 114 115 118 123 124 127 126 122 122 123 121 119 116 112 111 111 112 110 110 106 101 97 95 94 92 90 94 96 96 99 99 101 101 105 104 101 101 102 103 103 107 109 109 107 108
70 67 72 75 78 73 76 77 76 78 81 81 84 87 92 98 100 101 107 104 108 112 114 112 117 115 113 111 109 109 110 112 113 111 111 110 109 105 107 105 100 98 98 96 99 100 101 101 101 101 100 100 104 103 110 110 111 115 119 121 124 118 118 117 117 116 115 113 109 107 109 108 111 105 104 101 99 93 92 92 91 90 95 94 95 97 102 98 101 101 103 100 97 99 102 102 107 109 112 108
67 69 72 75 76 74 76 77 77 79 78 81 83 88 91 98 100 100 103 104 107 110 113 112 114 113 110 110 111 110 109 109 110 111 110 109 106 105 102 103 101 97 95 95 95 98 100 101 101 100 99 96 96 101 104 109 109 112 115 117 117 115 114 113 112 112 112 110 109 110 109 109 105 105 102 100 96 93 93 91 88 89 91 92 92 95 94 96 99 97 94 95 93 95 98 100 106 108 109 109
64 67 70 71 76 76 77 77 78 80 80 81 89 87 91 97 102 99 102 106 110 107 113 111 112 110 107 106 111 106 108 108 115 110 109 106 109 103 102 103 104 99 95 95 97 97 99 97 99 98 96 93 94 99 102 105 107 110 113 113 117 112 112 110 107 110 109 109 113 108 111 106 106 104 101 96 96 92 92 89 85 87 91 91 91 92 93 94 99 93 90 89 92 94 94 97 106 103 104 107
63 63 63 67 69 73 72 75 77 81 82 82 86 90 91 96 95 99 102 102 104 106 107 105 105 105 103 105 105 106 104 107 107 107 105 106 103 103 100 101 98 96 96 95 93 94 92 94 96 96 95 97 97 96 98 101 103 106 105 109 108 108 107 106 103 104 103 106 106 106 106 103 100 100 99 94 92 88 86 87 85 85 86 89 90 89 93 95 95 92 87 88 87 91 90 94 99 99 103 105
64 61 63 64 70 69 73 74 78 78 83 85 84 89 95 93 94 96 101 101 103 102 104 101 97 98 101 100 105 102 102 102 106 103 103 102 102 102 102 100 100 97 95 90 90 89 89 88 92 94 95 95 99 96 98 98 99 100 101 104 105 105 103 103 103 101 104 103 107 102 100 98 101 98 97 90 90 85 84 83 85 83 83 84 87 87 93 93 94 90 85 84 87 87 87 91 97 96 98 101
64 62 62 64 64 68 70 75 74 76 79 83 83 87 91 92 93 94 94 95 96 98 96 96 91 93 94 99 101 101 98 100 98 100 100 102 103 99 98 97 94 96 91 88 87 86 83 85 87 90 94 95 96 95 97 96 93 94 97 97 100 101 103 100 100 103 100 101 104 102 99 95 94 95 90 90 88 85 85 82 81 80 80 83 87 89 88 90 89 86 86 84 81 84 85 89 90 93 95 98
64 60 62 61 60 65 71 73 76 77 78 81 88 86 91 92 94 89 91 93 95 95 93 92 88 92 94 94 97 96 96 96 97 99 103 101 105 99 94 93 94 91 89 86 84 85 82 83 82 85 89 92 96 92 96 92 89 93 94 92 96 96 101 100 104 101 99 99 105 101 99 95 90 90 88 90 90 87 86 82 81 80 79 83 85 85 87 90 87 87 86 82 80 80 82 85 87 91 93 93
59 61 58 56 59 62 66 70 74 75 78 80 83 88 88 87 89 88 89 90 91 92 92 91 88 90 91 94 93 93 94 95 96 99 100 100 97 99 95 93 87 86 84 84 83 85 85 85 87 88 88 93 94 92 92 94 91 91 89 91 91 94 96 98 98 100 98 97 100 99 96 92 90 90 87 90 86 86 84 84 82 81 78 82 83 86 85 88 85 86 85 85 83 80 79 82 86 89 89 92
58 56 58 56 55 60 66 69 74 75 77 79 85 86 87 85 87 89 90 91 89 89 93 90 91 89 90 91 91 93 93 94 99 98 101 96 95 94 94 89 86 85 84 85 89 88 90 90 92 90 93 91 92 93 94 94 97 93 90 87 89 92 93 93 96 95 99 94 95 96 98 93 90 88 91 88 87 85 84 80 81 81 81 83 88 87 90 86 86 87 85 84 84 80 82 80 84 85 91 93
50 51 53 53 51 55 60 65 69 70 71 77 79 80 81 85 87 87 87 91 91 89 91 89 89 89 87 89 88 91 94 93 94 99 99 98 94 94 93 89 87 86 85 87 89 88 89 90 91 92 93 96 93 93 93 94 94 92 89 89 89 90 91 90 90 92 94 95 92 93 94 93 93 92 88 88 86 86 81 81 81 82 80 83 84 87 89 87 86 87 87 86 82 82 81 83 83 85 86 91
44 45 49 48 51 53 58 60 65 64 67 71 76 75 79 82 87 88 91 90 95 89 90 88 88 87 86 88 91 92 94 92 95 95 99 98 99 93 95 89 89 86 84 85 88 85 87 89 94 95 98 95 98 95 94 96 99 95 93 89 95 90 89 89 93 88 90 88 91 94 96 93 97 93 88 89 89 85 82 81 83 79 78 81 87 88 88 86 93 89 87 86 84 83 83 84 82 83 86 92
32 36 39 44 45 52 55 60 64 64 65 67 70 73 77 82 83 85 87 90 92 91 88 89 86 87 85 87 87 91 92 95 97 96 97 98 95 95 93 93 88 87 85 86 86 88 88 92 94 96 97 99 97 96 94 99 99 97 92 89 87 86 82 84 85 87 85 84 84 88 89 92 90 91 88 87 85 83 81 78 78 76 75 79 85 87 88 87 87 89 86 83 83 82 83 84 84 88 91 92
23 28 33 38 44 49 55 55 60 59 61 65 65 70 76 78 82 82 86 86 89 90 90 89 90 86 87 86 90 88 90 93 98 97 100 97 98 94 96 92 92 93 92 87 88 89 92 91 94 94 98 97 100 97 98 97 101 97 94 89 85 80 79 78 82 78 79 80 84 83 90 89 90 88 90 83 79 78 80 74 75 75 76 79 84 84 89 86 89 89 88 83 81 80 84 83 87 91 95 93
14 19 27 33 40 48 51 54 59 62 62 61 64 69 71 77 77 80 81 84 85 86 86 90 87 87 87 89 86 87 88 95 97 101 98 100 96 95 95 96 96 93 91 92 91 90 94 96 98 99 96 98 100 97 96 98 99 97 90 86 82 80 77 74 71 74 73 76 79 81 84 87 87 88 84 81 77 76 74 71 70 71 73 78 81 86 86 89 88 87 87 87 84 83 84 86 87 90 95 97
6 15 21 28 38 42 48 54 61 61 63 58 61 66 71 72 79 76 76 77 82 83 88 85 88 86 89 88 86 86 90 96 105 100 102 101 96 98 99 99 100 94 92 93 95 94 95 96 102 101 100 101 101 99 96 99 102 97 93 89 83 82 77 69 63 68 74 74 72 78 82 85 88 83 83 77 74 74 70 69 69 71 72 77 82 84 87 86 90 91 89 87 82 87 89 88 92 90 95 98
11 15 20 28 35 40 43 50 53 55 58 57 57 62 64 69 72 72 75 77 81 81 81 85 84 86 86 87 90 91 92 96 99 100 101 102 101 98 99 98 97 98 94 95 93 96 99 102 101 104 104 102 99 98 99 101 98 99 95 90 85 82 78 72 68 70 71 72 74 76 80 82 82 81 76 74 72 73 70 71 74 75 76 78 78 81 83 86 89 90 89 87 85 89 90 92 92 94 95 99
20 21 23 26 32 38 42 45 51 53 53 53 57 60 63 63 67 68 76 77 82 79 80 81 85 87 89 90 92 93 95 97 99 98 103 100 104 102 102 98 102 98 96 95 97 99 104 103 105 104 106 101 101 102 101 100 101 97 94 89 88 85 77 73 72 73 72 72 77 80 84 81 85 80 77 73 71 74 75 76 78 75 80 76 78 81 82 84 90 88 90 89 93 90 92 92 94 95 101 102
20 22 25 30 32 38 39 42 46 52 54 55 57 58 61 60 64 67 72 75 79 79 79 82 86 87 86 90 90 93 91 95 99 100 101 102 102 104 102 98 100 100 98 96 97 99 99 102 104 104 104 103 104 105 102 99 95 95 94 91 89 86 81 78 76 76 75 74 75 81 83 84 86 84 76 73 72 74 75 78 76 77 80 79 80 82 82 87 86 89 86 90 90 95 96 98 99 100 104 105
24 25 27 28 31 33 39 41 46 52 55 56 62 59 59 57 62 62 66 69 78 76 81 81 86 87 87 87 92 91 91 96 103 100 103 101 108 103 100 98 99 96 99 96 99 99 99 101 104 102 101 105 107 105 103 98 95 93 95 93 91 89 86 85 84 79 77 75 79 83 83 86 88 83 78 77 77 76 76 78 81 79 79 80 81 81 86 85 86 85 86 88 92 93 101 103 106 105 106 108
25 27 27 27 30 35 39 41 47 51 51 54 57 57 55 58 59 61 62 68 73 75 77 78 81 85 84 87 90 89 92 98 99 98 100 99 102 100 99 101 101 97 96 98 98 98 102 103 106 105 106 105 103 104 102 97 93 93 95 95 93 91 90 90 86 84 80 81 81 83 85 85 84 83 79 80 78 77 77 81 83 81 79 82 85 85 86 88 86 85 86 87 92 95 103 105 106 106 106 110
25 28 28 26 28 35 38 43 50 50 52 50 52 52 56 56 58 59 64 65 67 67 73 74 77 80 87 87 88 90 93 97 98 98 98 95 97 99 103 99 100 99 99 99 99 100 106 104 108 105 106 107 106 102 101 97 97 95 95 94 100 96 97 94 93 88 89 86 88 86 89 86 89 85 85 84 82 82 81 83 86 83 85 84 88 88 90 90 90 88 88 87 90 93 103 104 107 109 112 114
29 30 31 32 33 36 42 45 50 52 49 50 51 51 51 55 53 54 55 57 60 63 66 69 72 80 82 86 87 89 91 96 96 96 96 96 96 97 98 99 102 102 102 102 106 105 104 106 105 104 104 103 103 103 102 102 98 96 97 97 101 99 97 97 94 95 91 92 90 92 88 90 86 86 84 85 84 85 84 86 88 89 89 89 93 93 93 91 88 90 91 91 90 95 102 108 112 113 114 115
30 32 34 32 34 37 45 50 58 54 51 48 52 49 52 51 51 52 52 54 56 58 65 68 71 76 82 85 92 92 93 94 99 95 97 93 94 96 96 98 105 101 107 105 111 110 109 107 103 103 103 101 105 103 100 99 105 97 98 101 105 101 97 97 101 99 99 95 95 94 92 91 90 87 87 90 94 89 92 89 88 92 96 96 98 95 95 92 88 88 92 90 93 95 105 110 116 117 120 119
30 34 34 36 35 40 45 50 53 52 49 50 49 51 49 49 47 48 52 54 57 59 61 64 66 73 79 83 85 88 90 93 95 94 92 91 91 94 93 98 99 101 102 104 108 110 107 107 103 102 100 102 101 102 101 100 98 99 100 99 99 101 99 97 97 100 99 98 98 97 94 94 93 92 94 95 95 95 94 92 93 94 98 100 98 98 95 91 90 93 92 95 97 98 105 111 114 116 117 119
32 34 37 37 40 42 45 49 53 52 52 47 46 47 50 48 49 49 51 51 57 59 64 64 67 69 77 80 84 87 92 89 90 90 89 87 91 89 93 94 97 97 103 102 106 108 109 104 104 102 101 98 98 99 98 97 98 96 100 100 101 97 98 101 100 100 99 98 101 99 101 98 95 95 98 99 103 98 99 97 95 98 99 102 99 96 96 93 96 95 97 96 99 101 105 110 115 116 120 120
37 36 36 38 38 42 42 46 48 49 48 49 46 48 47 47 49 49 48 53 54 59 60 64 64 69 75 79 82 84 84 88 89 85 85 85 86 88 91 91 93 96 97 100 102 103 102 103 103 104 101 100 98 95 94 95 97 97 99 100 100 97 98 101 100 103 102 102 103 103 100 101 101 103 104 106 106 105 102 102 102 103 104 105 102 102 101 97 96 99 97 99 102 103 108 110 113 117 120 123
40 37 37 39 39 38 42 44 50 50 48 46 47 48 46 48 49 47 49 48 51 56 61 63 66 65 71 76 80 78 83 86 90 83 82 84 86 85 91 92 93 92 95 97 105 102 102 104 106 104 102 98 99 95 96 97 98 97 100 98 100 98 97 102 105 106 106 108 109 105 106 105 107 107 111 109 112 109 106 109 111 108 112 109 109 107 106 102 101 103 102 100 105 106 113 114 117 115 120 124
38 38 35 37 37 39 44 46 47 49 47 45 46 47 49 47 46 46 46 48 47 52 57 58 62 65 68 70 74 73 75 81 84 82 80 81 81 86 89 88 87 91 94 95 97 100 99 101 102 100 99 97 95 94 95 96 97 98 98 100 100 101 100 104 104 107 106 111 109 108 107 109 108 113 112 114 116 115 114 113 111 114 115 114 111 109 110 110 110 109 107 105 107 110 110 113 117 117 121 124
35 37 39 40 41 40 44 46 49 49 50 46 45 45 52 48 49 47 46 47 46 50 54 57 60 61 68 65 68 69 72 75 78 75 79 79 81 82 86 84 85 88 92 94 96 96 100 100 99 98 97 94 94 94 96 94 98 101 104 101 103 103 103 106 109 109 110 111 113 109 111 112 114 114 118 118 119 119 119 116 115 117 117 115 116 116 116 113 117 113 113 111 108 112 114 113 117 116 119 124
35 38 41 42 40 41 40 45 48 50 50 48 48 47 49 49 50 48 48 48 46 48 49 54 56 59 61 60 61 65 66 71 72 72 70 73 76 79 82 83 84 86 90 93 95 98 97 98 96 98 98 95 94 96 95 96 98 100 104 105 103 105 106 108 108 110 111 112 114 112 114 114 116 120 119 118 120 119 119 121 120 119 118 119 120 119 118 118 119 119 119 117 112 114 115 116 117 121 120 123
37 37 42 43 44 39 40 43 48 46 49 49 49 48 52 50 51 47 49 49 48 48 51 50 56 57 55 57 58 60 64 67 66 67 67 71 71 74 79 79 84 84 92 93 98 97 100 98 99 99 100 97 100 98 98 96 92 98 103 103 110 108 110 110 112 111 110 110 115 111 111 113 123 121 120 117 120 121 122 123 126 124 125 123 122 123 124 122 126 123 125 120 119 119 122 119 120 120 124 124
36 39 41 43 40 40 41 43 45 47 48 47 48 48 51 48 50 50 46 47 47 48 46 49 53 54 53 54 56 58 62 63 64 67 66 68 71 74 78 81 83 85 86 88 92 93 97 96 97 95 95 98 94 96 97 97 94 98 99 103 103 106 109 108 109 109 109 110 112 114 112 113 117 117 119 119 120 122 122 124 122 124 124 126 127 126 127 129 129 127 126 125 124 125 123 122 123 123 125 127
35 38 42 41 44 39 42 43 44 44 45 44 45 47 49 50 51 47 46 46 45 47 46 49 53 52 56 56 58 59 63 61 64 65 67 67 66 70 78 79 79 84 86 87 87 88 95 96 96 95 96 94 93 96 97 94 98 98 98 100 103 106 110 108 107 105 108 110 112 111 114 114 115 117 118 120 121 120 122 121 124 126 127 126 131 128 132 132 132 129 130 125 125 130 131 127 125 124 128 134
35 37 38 41 40 41 39 41 42 42 41 40 42 44 48 48 46 46 48 48 45 48 47 47 49 52 54 53 55 58 59 61 62 64 65 63 64 71 77 76 78 83 83 85 84 88 92 93 95 95 92 92 91 95 94 95 96 98 100 101 105 106 107 106 107 106 108 108 113 112 110 113 117 119 120 123 122 123 122 125 125 126 128 128 132 133 133 134 132 134 134 129 128 131 129 131 130 129 132 138
35 38 40 40 42 38 39 38 38 37 37 41 42 44 48 49 49 48 48 46 49 46 48 47 46 47 51 54 57 55 57 59 63 60 65 63 64 69 75 77 82 81 85 85 84 85 90 92 94 95 94 94 95 92 94 92 92 94 100 102 107 105 103 105 109 105 107 108 112 113 112 116 120 121 123 123 128 125 124 128 130 130 129 128 132 133 134 134 137 136 135 134 135 136 133 137 136 134 138 143
36 37 38 36 38 37 36 39 40 38 41 43 45 46 45 49 46 49 45 46 44 45 46 44 45 48 52 52 53 57 57 57 57 59 62 63 62 65 70 75 78 80 83 84 82 84 88 90 90 90 91 93 94 95 95 93 94 93 95 100 99 102 101 105 105 108 110 112 112 114 114 116 117 121 123 128 128 128 129 132 132 134 131 132 136 138 139 141 143 141 143 141 138 141 138 140 140 142 143 146
34 36 36 35 33 36 37 39 41 37 41 43 48 48 47 47 48 47 47 44 45 47 47 45 46 48 54 53 56 53 54 51 52 54 60 61 64 65 66 72 78 79 84 85 86 83 85 85 89 88 90 89 94 92 95 91 92 93 93 95 96 97 101 104 106 106 112 113 116 117 119 116 121 121 129 130 135 134 135 136 141 139 138 138 139 141 146 148 149 146 148 145 146 143 145 144 147 149 152 152
37 36 32 32 32 31 32 37 40 39 43 44 44 45 45 48 49 47 47 46 49 47 48 50 49 51 51 51 52 50 49 48 46 52 53 57 59 64 65 69 74 77 79 83 87 88 85 87 90 88 87 90 93 93 94 94 91 94 94 93 97 97 97 100 101 106 111 115 117 118 117 119 119 123 125 132 135 136 137 142 145 142 139 141 142 145 144 149 152 149 148 148 149 149 149 153 157 155 158 158
42 36 35 32 32 33 32 35 41 38 41 42 47 43 45 47 51 48 48 47 55 52 52 54 55 50 53 50 46 46 49 44 42 49 52 54 62 62 61 64 69 75 81 83 89 89 91 88 92 87 90 91 95 93 93 93 93 94 94 95 98 96 101 102 103 105 107 112 118 115 117 119 124 124 127 129 136 135 139 142 153 145 145 144 147 145 145 148 154 153 154 153 155 152 155 159 167 161 163 165
33 33 32 32 32 33 34 34 38 38 38 40 42 45 46 48 50 48 49 49 52 52 52 51 52 50 51 49 45 47 46 43 45 46 48 52 55 59 58 61 66 69 77 81 84 87 88 87 90 89 86 87 88 90 91 92 92 90 91 93 95 98 100 104 105 105 108 113 115 117 121 124 126 125 129 131 134 139 138 142 144 149 146 147 145 146 147 150 152 155 154 156 155 154 158 161 165 163 161 164
29 29 31 30 28 33 37 35 35 35 38 37 41 41 48 50 52 51 52 49 49 48 51 49 52 48 51 49 48 48 43 45 47 45 50 49 53 55 59 62 64 66 73 76 84 83 87 85 89 87 87 82 83 87 89 88 92 89 92 95 97 98 101 104 107 110 114 111 114 117 126 127 127 128 130 133 138 140 139 142 143 148 148 149 150 149 151 152 151 151 157 153 154 157 163 161 165 163 165 164
27 29 27 27 27 32 36 37 36 36 37 38 38 40 43 45 51 49 49 47 46 46 44 46 48 48 49 48 47 47 44 44 43 46 49 51 53 53 57 64 67 69 72 77 80 81 84 83 86 84 82 82 79 82 86 88 89 93 91 95 96 99 100 103 104 110 110 111 116 121 124 128 129 129 131 134 135 140 139 141 141 147 147 151 151 151 149 152 150 150 152 152 153 157 161 161 163 165 169 169
25 25 28 27 30 30 34 34 36 36 38 35 36 39 40 42 51 46 47 46 46 45 43 44 49 48 48 45 51 45 44 42 45 47 50 49 51 56 60 62 69 73 77 78 79 79 81 82 84 83 84 79 79 82 85 88 93 90 92 92 95 95 101 104 107 110 111 111 116 121 127 129 133 131 132 136 137 140 142 143 142 147 152 152 159 153 153 151 152 150 150 153 157 156 160 163 164 166 173 174
19 21 20 23 24 26 29 30 32 34 34 36 34 38 38 43 46 48 50 47 43 44 43 43 44 44 42 44 43 43 42 44 46 50 50 51 52 56 58 60 65 69 74 76 74 78 79 78 77 79 80 77 78 80 82 85 87 91 92 93 95 96 101 104 105 108 107 111 111 117 122 128 131 132 134 138 139 140 142 145 143 148 149 154 155 154 153 151 152 148 150 154 158 160 163 166 169 170 172 175
9 11 15 17 21 22 22 24 28 28 31 31 37 37 42 42 46 49 51 46 45 40 41 37 38 42 43 42 42 42 43 44 50 51 53 51 58 57 59 59 63 69 72 73 74 75 81 78 76 76 78 77 77 80 86 86 85 88 90 92 94 97 102 104 106 107 107 109 111 116 122 126 134 136 139 140 144 143 145 145 148 149 152 154 153 152 153 152 151 151 150 154 157 160 168 168 171 174 174 179
7 8 12 17 19 21 22 21 22 22 23 29 29 33 37 43 48 49 47 45 45 40 37 37 37 38 38 42 42 41 41 46 48 49 49 52 54 57 60 62 66 69 70 73 75 78 77 75 71 72 73 76 78 79 82 86 84 85 88 91 96 98 101 102 101 105 106 109 110 116 124 131 134 137 139 141 143 146 148 148 147 149 151 155 155 155 154 152 152 152 151 155 158 161 165 173 173 178 178 183
1 7 9 15 21 20 21 17 16 18 20 24 27 30 34 41 50 48 45 44 46 38 37 36 35 36 36 40 44 41 43 44 44 48 48 54 60 58 59 65 68 68 70 75 79 76 74 70 68 72 76 76 79 81 83 85 87 86 89 93 98 97 98 97 98 103 105 108 115 120 127 131 141 138 138 142 147 148 153 148 151 153 154 154 160 157 158 152 150 155 158 158 160 165 169 173 181 180 185 186
6 5 8 16 19 20 22 21 19 19 19 24 26 31 32 39 42 43 46 46 44 40 36 36 37 36 38 43 42 43 46 43 44 47 48 54 55 57 59 64 66 68 70 72 75 74 69 68 69 69 72 73 77 79 78 83 86 88 90 91 92 94 96 96 97 101 105 109 116 122 127 130 132 137 138 141 145 150 151 151 151 155 158 157 157 159 157 157 158 158 160 163 165 167 173 180 182 187 188 192
9 9 11 16 21 20 23 24 25 22 23 25 31 31 35 37 40 43 47 47 46 43 41 37 40 39 41 41 46 47 48 46 45 47 51 52 55 57 60 64 69 69 74 72 76 70 70 68 67 69 69 73 78 76 77 80 86 85 89 90 93 94 96 97 102 103 106 107 116 121 127 129 131 134 138 142 143 146 154 155 157 158 162 161 161 158 160 159 163 160 163 166 168 173 182 182 184 187 194 193
8 7 9 12 18 21 20 23 27 28 26 29 31 33 36 39 41 42 43 44 43 43 42 37 38 40 42 43 43 47 49 49 48 52 54 55 56 61 63 65 68 70 70 70 71 69 66 67 66 70 69 72 74 76 77 80 83 85 86 92 92 93 97 101 104 104 107 108 114 119 124 130 131 133 138 142 145 147 151 156 158 159 162 164 162 162 160 162 162 164 166 169 172 177 181 186 188 193 192 197
9 7 9 10 18 21 24 24 30 32 33 33 35 33 34 39 43 43 46 42 43 41 40 40 37 40 43 43 44 48 49 52 54 52 57 56 59 60 66 65 68 66 69 67 69 71 69 67 71 72 70 72 75 76 77 81 82 83 89 91 94 94 99 103 108 105 106 106 112 118 128 129 132 135 137 143 147 149 155 157 159 158 163 164 166 162 164 165 169 167 169 175 180 182 189 191 196 194 195 198
5 6 6 11 15 21 25 26 29 30 31 34 37 36 37 38 40 44 43 46 44 44 43 42 40 41 43 44 47 48 48 54 54 55 55 57 58 63 64 65 66 66 67 67 67 70 68 70 72 72 71 74 75 78 79 81 82 86 87 89 91 97 100 103 105 106 106 109 112 118 123 130 130 134 138 143 145 149 151 156 159 158 159 162 164 163 165 167 169 170 174 178 180 184 188 193 196 197 198 198
3 4 9 13 16 21 26 26 30 33 36 34 40 36 40 42 45 43 46 47 49 48 47 42 41 45 48 48 49 47 51 51 56 53 55 56 63 64 66 65 71 69 66 71 72 70 73 73 75 73 77 77 81 81 85 87 90 88 89 89 95 96 102 104 107 104 108 110 112 116 125 128 130 132 140 141 147 149 153 155 159 160 161 164 165 164 168 170 172 172 179 181 186 187 189 192 197 194 198 199
5 6 9 15 18 20 24 25 29 33 35 35 37 38 37 41 44 46 48 48 48 50 47 44 44 47 47 49 50 51 49 53 54 55 55 55 58 63 62 67 71 71 68 71 69 71 74 76 76 79 78 80 82 84 87 90 89 92 92 94 95 95 98 101 104 106 106 109 112 118 124 129 130 133 139 142 145 150 153 155 157 163 166 168 167 168 170 170 174 175 178 183 186 186 190 191 194 195 197 200
3 8 13 16 21 19 23 27 30 32 34 35 40 36 37 43 47 46 46 49 53 50 50 49 48 49 49 49 53 52 52 53 54 54 52 54 61 63 62 66 71 71 72 71 71 71 74 74 79 81 83 84 85 86 88 93 95 94 97 96 95 97 99 102 106 106 111 113 112 121 129 128 136 136 137 140 145 148 150 155 159 162 169 169 177 171 170 170 176 177 177 180 185 189 191 193 194 195 200 201
6 6 10 15 18 23 24 27 26 30 32 35 34 35 39 44 47 47 48 48 48 47 48 49 48 48 47 50 51 51 52 53 55 53 55 56 62 64 65 66 70 71 72 71 71 71 72 74 77 81 81 86 88 90 90 95 98 99 97 98 100 100 103 108 110 111 112 112 114 122 128 129 133 134 139 143 147 148 152 159 163 166 171 173 174 174 174 174 176 177 179 184 188 192 192 196 196 199 203 204
6 6 11 14 16 20 26 26 27 29 35 35 34 35 39 43 48 46 48 47 46 47 49 47 46 48 52 50 51 49 53 52 52 53 57 60 65 66 67 65 69 70 70 73 70 72 74 74 76 82 84 84 90 92 94 99 101 103 104 101 104 106 111 114 117 116 114 116 117 122 129 130 131 132 138 142 148 148 156 158 165 169 172 174 174 177 178 177 176 179 186 189 192 195 198 200 204 205 206 207
7 7 11 10 13 21 24 29 28 32 36 36 33 37 41 44 45 47 45 46 44 47 44 47 47 49 47 47 49 52 52 54 55 57 59 60 65 67 67 67 65 69 72 75 73 76 75 76 78 82 82 87 86 90 95 99 101 105 106 108 107 111 113 118 120 118 119 119 122 126 131 129 128 133 135 142 144 150 156 161 165 169 171 173 176 179 181 178 178 182 187 190 191 195 199 204 203 207 210 210
8 8 9 10 15 18 27 28 32 31 37 34 36 37 41 42 44 44 44 44 47 46 44 45 50 50 48 48 46 51 54 57 57 57 60 59 64 62 64 66 65 68 77 79 81 75 75 74 75 79 85 84 86 92 98 102 108 109 110 108 108 111 117 118 123 123 125 126 129 128 132 130 129 130 136 141 146 149 153 159 169 170 170 176 182 181 185 185 181 184 188 189 195 198 203 204 206 209 216 213
7 5 8 12 15 17 23 26 28 31 37 35 37 36 37 39 41 43 42 46 48 46 44 47 48 51 48 50 50 50 55 55 54 56 59 60 61 62 65 66 69 72 77 81 82 79 77 79 78 82 85 89 91 97 101 103 107 109 109 110 110 110 116 120 122 123 124 129 129 132 132 131 134 133 137 139 145 150 155 160 167 168 172 177 179 183 184 188 186 186 191 194 199 203 208 211 214 217 217 219
6 4 7 9 16 16 21 24 29 31 37 36 37 34 38 37 40 42 43 49 51 48 48 47 50 51 52 49 51 50 57 57 54 55 58 62 61 62 65 70 75 77 81 84 85 83 82 81 81 86 88 90 96 100 105 106 107 112 115 110 111 112 115 119 123 123 126 129 132 133 137 133 137 136 136 138 143 148 154 159 168 169 175 178 180 186 190 188 189 192 197 201 203 208 214 219 223 222 226 222
3 5 7 9 11 16 21 27 29 33 31 33 34 36 37 42 44 43 46 48 47 47 48 47 50 49 50 51 52 53 54 56 56 56 58 63 63 66 67 73 73 77 83 85 85 86 86 84 86 90 94 97 101 103 104 108 109 115 117 115 114 117 117 120 122 123 126 131 136 135 134 137 138 138 140 143 147 150 154 161 168 171 176 181 184 190 191 194 196 200 202 206 207 211 217 224 228 228 229 228
0 4 9 11 12 17 26 27 38 31 31 30 32 36 39 42 48 46 47 50 52 47 47 49 51 51 54 54 58 55 53 54 56 59 64 63 66 71 73 73 78 78 84 84 89 88 89 87 88 96 100 103 108 109 109 111 117 116 120 120 120 120 119 120 122 126 131 136 144 138 137 136 138 140 145 145 150 152 158 165 170 177 182 183 189 191 197 200 204 205 207 210 213 215 224 227 238 231 231 230
2 6 8 11 12 19 24 27 30 31 30 34 32 35 37 44 45 46 45 49 48 47 49 49 48 51 54 56 55 57 58 59 61 60 63 68 69 72 78 78 81 82 86 89 89 92 94 97 99 103 107 109 109 112 115 116 119 119 121 123 126 126 126 125 127 133 137 141 143 141 141 140 141 144 149 150 153 157 163 169 176 181 183 189 192 193 198 200 202 207 209 210 213 218 220 225 231 233 230 230
6 6 5 10 14 18 22 24 26 30 33 33 38 38 39 42 49 49 49 47 47 49 50 49 51 52 53 55 55 58 59 61 65 62 66 68 72 77 82 83 86 87 86 89 95 98 103 104 108 110 112 111 113 116 120 120 122 124 127 128 131 133 133 130 132 139 145 145 145 145 147 146 146 151 153 154 160 161 169 171 181 184 189 192 196 197 198 200 205 205 211 214 218 220 221 222 226 228 230 230
6 5 8 13 14 16 20 21 23 26 32 34 36 39 39 43 49 50 51 50 48 52 53 54 56 55 55 54 56 60 61 67 66 66 70 71 77 82 86 88 88 87 88 93 96 100 103 108 110 114 115 116 115 121 121 125 124 126 127 132 131 134 134 137 140 143 146 150 149 151 148 149 148 154 158 162 164 168 170 176 181 186 189 195 195 198 201 202 201 205 208 210 216 218 219 223 222 227 229 226
8 8 10 12 16 15 17 21 22 27 32 35 37 40 41 44 52 52 53 53 54 52 58 56 59 57 60 56 59 62 68 68 69 69 70 73 82 83 90 90 93 93 93 98 103 102 106 112 119 118 119 118 121 125 126 126 128 128 131 133 138 140 139 138 144 147 150 154 157 155 153 152 153 159 163 165 173 175 178 180 184 191 196 198 202 202 203 202 202 206 205 208 215 218 223 222 222 226 227 226
10 14 13 17 17 18 18 20 22 27 32 36 39 41 45 47 49 52 50 53 53 55 57 59 59 58 59 62 61 66 73 74 72 73 74 79 83 88 92 95 95 99 99 102 107 108 112 116 117 121 121 122 128 129 131 130 131 133 137 140 141 142 142 143 147 152 154 155 157 158 158 159 160 161 166 172 173 177 178 183 184 190 196 198 199 203 203 203 202 204 206 210 215 220 223 222 223 225 225 227
14 17 21 17 17 20 20 24 28 30 33 35 39 43 47 47 52 51 51 52 53 53 55 56 59 58 61 63 65 69 80 78 81 79 82 85 90 93 98 98 101 105 108 109 113 112 117 119 123 125 124 128 132 135 138 137 138 140 146 147 148 148 148 149 150 156 161 158 161 163 163 164 165 167 171 174 175 177 184 185 190 192 198 198 202 205 206 207 210 208 209 210 215 220 223 222 222 223 225 224
19 20 17 18 20 18 19 25 27 30 30 35 38 44 47 51 53 51 50 51 51 54 53 54 56 59 61 67 72 75 81 84 86 89 89 89 93 96 100 103 106 109 109 114 113 118 122 122 124 126 129 131 132 137 138 143 143 147 148 150 149 150 150 154 157 159 162 166 168 169 169 167 170 170 174 174 178 181 185 187 191 195 197 203 205 205 204 207 210 212 213 217 217 222 224 227 228 228 226 226
27 20 20 19 23 21 22 22 28 29 32 36 44 43 45 50 57 54 53 50 57 51 52 54 60 63 67 70 78 80 85 89 99 94 95 93 96 101 104 109 114 113 115 115 118 120 127 127 132 129 133 133 138 137 142 143 152 150 153 154 154 155 155 158 161 163 170 171 173 174 175 173 175 173 178 177 183 185 185 187 193 195 202 202 208 207 208 212 215 216 218 219 221 224 232 231 236 231 228 225
25 22 21 22 23 21 18 20 22 26 27 32 39 40 45 50 53 53 53 50 53 52 51 56 59 62 68 73 76 80 83 89 95 96 98 98 102 107 108 111 113 117 114 116 118 124 126 132 132 135 136 135 136 137 142 144 148 151 153 156 156 159 157 162 167 171 172 176 176 178 178 179 180 179 181 180 184 187 187 193 194 199 202 206 209 214 214 215 215 217 221 224 228 230 232 234 234 232 227 226
23 19 24 21 24 21 20 19 18 19 25 29 37 40 45 48 52 51 49 46 49 50 53 56 58 65 68 73 80 79 86 89 97 99 104 105 105 109 116 114 118 117 119 117 122 123 128 129 134 134 139 136 136 138 143 146 147 153 160 159 166 164 163 167 172 176 179 177 179 182 184 182 183 183 183 181 184 187 194 194 201 202 207 210 217 218 219 219 220 223 225 229 231 232 238 236 237 233 232 227
15 16 17 20 23 20 19 16 15 18 21 26 30 37 40 47 50 50 47 47 47 50 52 57 62 66 71 73 76 81 84 91 99 102 106 110 111 116 118 118 119 123 121 121 122 127 127 132 135 134 133 137 136 140 145 147 146 152 161 165 169 171 170 172 177 180 180 183 185 185 185 184 183 185 182 185 184 189 194 196 201 204 211 214 219 219 222 224 226 231 229 232 234 237 238 242 239 239 232 230
11 13 14 19 24 18 17 15 18 20 22 23 26 31 36 42 48 48 48 45 47 50 57 57 63 67 73 75 76 80 85 94 102 105 113 114 119 118 119 121 127 126 125 125 126 127 131 134 139 133 133 134 136 139 142 147 149 157 163 168 174 177 177 176 180 183 187 189 191 186 188 189 191 186 186 187 189 190 193 196 201 206 215 217 224 224 227 229 238 235 237 238 242 241 241 242 247 243 238 231
10 13 15 15 16 14 15 17 15 19 22 22 26 30 33 38 43 45 47 47 48 52 55 60 62 68 72 74 75 81 89 98 101 107 113 115 117 120 122 125 125 126 125 125 126 127 129 134 134 137 137 136 138 141 143 146 151 157 165 173 178 182 185 185 190 193 192 194 191 190 190 193 191 193 190 192 190 194 197 201 202 210 214 218 220 225 230 236 239 239 240 245 242 242 242 244 246 243 236 232
10 11 14 12 13 12 12 12 17 18 22 21 25 30 36 37 39 39 42 42 48 49 54 57 64 67 74 74 79 86 94 99 108 111 116 117 121 122 126 126 126 127 125 125 126 127 127 130 135 136 136 138 137 140 147 152 154 158 170 177 185 188 194 196 200 197 200 194 194 193 194 194 195 195 199 197 195 199 205 206 207 212 216 221 224 230 236 240 239 243 247 246 250 244 245 247 248 242 238 233
8 8 9 7 8 8 7 11 13 18 19 23 27 30 32 34 36 38 40 40 44 49 50 57 62 68 70 78 81 89 93 102 111 113 116 122 123 123 126 126 127 129 126 128 125 125 128 131 131 133 136 139 142 145 150 157 160 162 168 180 186 190 193 201 205 205 201 198 195 196 199 199 200 201 202 199 202 204 207 211 214 215 220 224 229 231 234 242 244 246 245 249 251 249 251 249 247 246 238 233
5 7 5 6 7 6 8 7 9 17 23 25 29 28 30 35 39 40 40 40 41 47 51 57 62 67 71 79 89 91 94 103 118 117 121 124 127 126 126 129 135 132 132 127 128 127 127 129 131 134 136 140 144 147 156 158 164 164 170 179 191 192 197 207 221 209 205 201 203 201 203 203 204 204 206 205 206 206 213 215 219 218 222 228 237 235 238 242 247 247 248 248 255 250 253 251 255 245 243 235
6 6 8 6 5 7 7 10 11 14 18 25 27 28 29 34 38 40 38 42 42 47 52 57 61 66 72 79 85 90 94 102 109 114 119 122 124 127 128 129 133 133 129 130 130 128 127 129 130 133 134 139 145 151 156 159 160 165 173 180 186 193 197 206 208 208 203 204 205 204 204 207 209 209 207 210 209 209 211 215 219 220 227 232 233 235 239 244 243 246 245 250 248 248 250 249 248 247 244 236
8 6 11 8 7 8 10 12 17 16 18 25 28 32 35 37 43 38 40 39 43 48 55 57 58 63 70 78 85 86 94 98 106 111 117 121 124 124 129 130 130 134 132 134 131 131 131 128 130 133 137 138 143 148 158 159 163 166 173 177 185 192 201 204 206 203 204 206 204 204 210 210 215 212 213 213 213 213 213 217 219 224 230 231 235 238 241 241 244 243 245 247 245 247 249 245 246 245 242 234
11 10 8 9 7 10 11 16 17 18 21 23 26 29 31 36 40 39 38 42 45 51 53 55 56 63 68 76 83 86 90 99 104 108 115 118 119 124 128 130 132 137 137 139 137 137 133 132 135 138 141 142 146 151 156 160 166 169 174 181 186 191 195 199 199 200 201 206 207 209 211 212 213 213 210 212 211 213 216 217 224 226 230 234 234 238 240 240 239 240 241 244 245 245 246 246 245 242 240 237
